<mxfile host="Electron" modified="2023-06-09T17:23:38.653Z" agent="Mozilla/5.0 (Windows NT 10.0; Win64; x64) AppleWebKit/537.36 (KHTML, like Gecko) draw.io/21.3.7 Chrome/112.0.5615.204 Electron/24.5.0 Safari/537.36" etag="_9Uj2aPjaX0XnFRZEud1" version="21.3.7" type="device" pages="2">
  <diagram name="class definition" id="cDmvo42EJWZh-CAlMUts">
    <mxGraphModel dx="1600" dy="953" grid="1" gridSize="12" guides="1" tooltips="1" connect="1" arrows="1" fold="1" page="1" pageScale="1" pageWidth="1654" pageHeight="2336" background="none" math="0" shadow="0">
      <root>
        <mxCell id="0" />
        <mxCell id="1" parent="0" />
        <mxCell id="7L2wKVbQM28l9aC9Pr6a-2" value="ALGORITHM" style="swimlane;" vertex="1" parent="1">
          <mxGeometry x="247" y="1360" width="1290" height="519" as="geometry">
            <mxRectangle x="10" y="630" width="110" height="30" as="alternateBounds" />
          </mxGeometry>
        </mxCell>
        <mxCell id="7L2wKVbQM28l9aC9Pr6a-3" value="User&#39;s name&lt;br&gt;level" style="shape=manualInput;whiteSpace=wrap;html=1;" vertex="1" parent="7L2wKVbQM28l9aC9Pr6a-2">
          <mxGeometry x="50" y="145" width="100" height="90" as="geometry" />
        </mxCell>
        <mxCell id="7L2wKVbQM28l9aC9Pr6a-4" value="collector method" style="swimlane;" vertex="1" parent="7L2wKVbQM28l9aC9Pr6a-2">
          <mxGeometry x="330" y="120" width="160" height="290" as="geometry" />
        </mxCell>
        <mxCell id="7L2wKVbQM28l9aC9Pr6a-5" value="choose&lt;br&gt;Two inventions&lt;br&gt;(level)" style="rounded=0;whiteSpace=wrap;html=1;" vertex="1" parent="7L2wKVbQM28l9aC9Pr6a-4">
          <mxGeometry x="20" y="40" width="120" height="60" as="geometry" />
        </mxCell>
        <mxCell id="7L2wKVbQM28l9aC9Pr6a-6" value="Invention B = A&lt;br&gt;new invention B is selected" style="rounded=0;whiteSpace=wrap;html=1;" vertex="1" parent="7L2wKVbQM28l9aC9Pr6a-4">
          <mxGeometry x="10" y="220" width="140" height="60" as="geometry" />
        </mxCell>
        <mxCell id="7L2wKVbQM28l9aC9Pr6a-7" style="edgeStyle=orthogonalEdgeStyle;rounded=0;orthogonalLoop=1;jettySize=auto;html=1;entryX=0.5;entryY=1;entryDx=0;entryDy=0;" edge="1" parent="7L2wKVbQM28l9aC9Pr6a-4" source="7L2wKVbQM28l9aC9Pr6a-6" target="7L2wKVbQM28l9aC9Pr6a-5">
          <mxGeometry relative="1" as="geometry" />
        </mxCell>
        <mxCell id="7L2wKVbQM28l9aC9Pr6a-8" value="__str__ method" style="swimlane;" vertex="1" parent="7L2wKVbQM28l9aC9Pr6a-2">
          <mxGeometry x="500" y="120" width="170" height="110" as="geometry" />
        </mxCell>
        <mxCell id="7L2wKVbQM28l9aC9Pr6a-9" value="Display inventions A &amp;amp; B" style="shape=display;whiteSpace=wrap;html=1;" vertex="1" parent="7L2wKVbQM28l9aC9Pr6a-8">
          <mxGeometry x="10" y="55" width="160" height="30" as="geometry" />
        </mxCell>
        <mxCell id="7L2wKVbQM28l9aC9Pr6a-10" value="Load dict_inventions.txt" style="shape=parallelogram;perimeter=parallelogramPerimeter;whiteSpace=wrap;html=1;fixedSize=1;" vertex="1" parent="7L2wKVbQM28l9aC9Pr6a-2">
          <mxGeometry x="190" y="160" width="120" height="60" as="geometry" />
        </mxCell>
        <mxCell id="7L2wKVbQM28l9aC9Pr6a-11" value="" style="edgeStyle=orthogonalEdgeStyle;rounded=0;orthogonalLoop=1;jettySize=auto;html=1;" edge="1" parent="7L2wKVbQM28l9aC9Pr6a-2" source="7L2wKVbQM28l9aC9Pr6a-3" target="7L2wKVbQM28l9aC9Pr6a-10">
          <mxGeometry relative="1" as="geometry" />
        </mxCell>
        <mxCell id="7L2wKVbQM28l9aC9Pr6a-12" value="" style="edgeStyle=orthogonalEdgeStyle;rounded=0;orthogonalLoop=1;jettySize=auto;html=1;" edge="1" parent="7L2wKVbQM28l9aC9Pr6a-2" source="7L2wKVbQM28l9aC9Pr6a-10" target="7L2wKVbQM28l9aC9Pr6a-5">
          <mxGeometry relative="1" as="geometry" />
        </mxCell>
        <mxCell id="7L2wKVbQM28l9aC9Pr6a-13" value="" style="edgeStyle=orthogonalEdgeStyle;rounded=0;orthogonalLoop=1;jettySize=auto;html=1;exitX=1;exitY=0.5;exitDx=0;exitDy=0;exitPerimeter=0;" edge="1" parent="7L2wKVbQM28l9aC9Pr6a-2" source="7L2wKVbQM28l9aC9Pr6a-25" target="7L2wKVbQM28l9aC9Pr6a-31">
          <mxGeometry relative="1" as="geometry">
            <mxPoint x="1030.0000000000002" y="85" as="sourcePoint" />
          </mxGeometry>
        </mxCell>
        <mxCell id="7L2wKVbQM28l9aC9Pr6a-14" value="Program ends" style="rounded=1;whiteSpace=wrap;html=1;" vertex="1" parent="7L2wKVbQM28l9aC9Pr6a-2">
          <mxGeometry x="40" y="430" width="120" height="40" as="geometry" />
        </mxCell>
        <mxCell id="7L2wKVbQM28l9aC9Pr6a-15" value="officer method" style="swimlane;" vertex="1" parent="7L2wKVbQM28l9aC9Pr6a-2">
          <mxGeometry x="677" y="50" width="210" height="310" as="geometry" />
        </mxCell>
        <mxCell id="7L2wKVbQM28l9aC9Pr6a-16" value="Novice: +10 coins (1:100)&lt;br&gt;Intermediate: +15 coins (1:50)&lt;br&gt;Master: +20 coins (1:25)" style="rounded=0;whiteSpace=wrap;html=1;" vertex="1" parent="7L2wKVbQM28l9aC9Pr6a-15">
          <mxGeometry x="10" y="220" width="180" height="70" as="geometry" />
        </mxCell>
        <mxCell id="7L2wKVbQM28l9aC9Pr6a-17" value="False" style="ellipse;whiteSpace=wrap;html=1;aspect=fixed;" vertex="1" parent="7L2wKVbQM28l9aC9Pr6a-15">
          <mxGeometry x="73" y="40" width="30" height="30" as="geometry" />
        </mxCell>
        <mxCell id="7L2wKVbQM28l9aC9Pr6a-18" value="True" style="ellipse;whiteSpace=wrap;html=1;aspect=fixed;" vertex="1" parent="7L2wKVbQM28l9aC9Pr6a-15">
          <mxGeometry x="170" y="150" width="30" height="30" as="geometry" />
        </mxCell>
        <mxCell id="7L2wKVbQM28l9aC9Pr6a-19" value="Invention A&lt;br&gt;or&lt;br&gt;Invention B" style="rhombus;whiteSpace=wrap;html=1;" vertex="1" parent="7L2wKVbQM28l9aC9Pr6a-15">
          <mxGeometry x="50" y="85" width="120" height="110" as="geometry" />
        </mxCell>
        <mxCell id="7L2wKVbQM28l9aC9Pr6a-20" value="" style="endArrow=classic;html=1;rounded=0;entryX=1.004;entryY=0.431;entryDx=0;entryDy=0;exitX=1;exitY=0.5;exitDx=0;exitDy=0;entryPerimeter=0;" edge="1" parent="7L2wKVbQM28l9aC9Pr6a-15" source="7L2wKVbQM28l9aC9Pr6a-19" target="7L2wKVbQM28l9aC9Pr6a-16">
          <mxGeometry width="50" height="50" relative="1" as="geometry">
            <mxPoint x="43" y="209" as="sourcePoint" />
            <mxPoint x="313" y="179" as="targetPoint" />
            <Array as="points">
              <mxPoint x="203" y="140" />
              <mxPoint x="203" y="250" />
            </Array>
          </mxGeometry>
        </mxCell>
        <mxCell id="7L2wKVbQM28l9aC9Pr6a-21" value="__init__ method" style="swimlane;" vertex="1" parent="7L2wKVbQM28l9aC9Pr6a-2">
          <mxGeometry x="30" y="120" width="334" height="130" as="geometry" />
        </mxCell>
        <mxCell id="7L2wKVbQM28l9aC9Pr6a-22" value="data method" style="swimlane;" vertex="1" parent="7L2wKVbQM28l9aC9Pr6a-2">
          <mxGeometry x="180" y="120" width="140" height="130" as="geometry" />
        </mxCell>
        <mxCell id="7L2wKVbQM28l9aC9Pr6a-23" style="edgeStyle=orthogonalEdgeStyle;rounded=0;orthogonalLoop=1;jettySize=auto;html=1;entryX=1;entryY=0.5;entryDx=0;entryDy=0;exitX=0;exitY=0.5;exitDx=0;exitDy=0;exitPerimeter=0;" edge="1" parent="7L2wKVbQM28l9aC9Pr6a-2" source="7L2wKVbQM28l9aC9Pr6a-27" target="7L2wKVbQM28l9aC9Pr6a-6">
          <mxGeometry relative="1" as="geometry">
            <mxPoint x="525" y="370" as="sourcePoint" />
          </mxGeometry>
        </mxCell>
        <mxCell id="7L2wKVbQM28l9aC9Pr6a-24" style="edgeStyle=orthogonalEdgeStyle;rounded=0;orthogonalLoop=1;jettySize=auto;html=1;entryX=1;entryY=0.5;entryDx=0;entryDy=0;entryPerimeter=0;" edge="1" parent="7L2wKVbQM28l9aC9Pr6a-2" source="7L2wKVbQM28l9aC9Pr6a-16" target="7L2wKVbQM28l9aC9Pr6a-27">
          <mxGeometry relative="1" as="geometry">
            <mxPoint x="645" y="370" as="targetPoint" />
            <Array as="points">
              <mxPoint x="769" y="370" />
            </Array>
          </mxGeometry>
        </mxCell>
        <mxCell id="7L2wKVbQM28l9aC9Pr6a-25" value="Display score" style="shape=display;whiteSpace=wrap;html=1;" vertex="1" parent="7L2wKVbQM28l9aC9Pr6a-2">
          <mxGeometry x="910" y="70" width="125" height="30" as="geometry" />
        </mxCell>
        <mxCell id="7L2wKVbQM28l9aC9Pr6a-26" value="__str__ method" style="swimlane;" vertex="1" parent="7L2wKVbQM28l9aC9Pr6a-2">
          <mxGeometry x="520" y="310" width="140" height="100" as="geometry" />
        </mxCell>
        <mxCell id="7L2wKVbQM28l9aC9Pr6a-27" value="Display score" style="shape=display;whiteSpace=wrap;html=1;" vertex="1" parent="7L2wKVbQM28l9aC9Pr6a-26">
          <mxGeometry x="2.5" y="45" width="125" height="30" as="geometry" />
        </mxCell>
        <mxCell id="7L2wKVbQM28l9aC9Pr6a-28" value="__str__ method" style="swimlane;" vertex="1" parent="7L2wKVbQM28l9aC9Pr6a-2">
          <mxGeometry x="902.5" y="30" width="140" height="90" as="geometry" />
        </mxCell>
        <mxCell id="7L2wKVbQM28l9aC9Pr6a-29" style="edgeStyle=orthogonalEdgeStyle;rounded=0;orthogonalLoop=1;jettySize=auto;html=1;entryX=1;entryY=0.5;entryDx=0;entryDy=0;" edge="1" parent="7L2wKVbQM28l9aC9Pr6a-2" source="7L2wKVbQM28l9aC9Pr6a-30" target="7L2wKVbQM28l9aC9Pr6a-36">
          <mxGeometry relative="1" as="geometry">
            <Array as="points">
              <mxPoint x="1125" y="450" />
            </Array>
          </mxGeometry>
        </mxCell>
        <mxCell id="7L2wKVbQM28l9aC9Pr6a-30" value="data method" style="swimlane;" vertex="1" parent="7L2wKVbQM28l9aC9Pr6a-2">
          <mxGeometry x="1055" y="30" width="140" height="130" as="geometry" />
        </mxCell>
        <mxCell id="7L2wKVbQM28l9aC9Pr6a-31" value="store highest score&lt;br&gt;user.txt" style="shape=parallelogram;perimeter=parallelogramPerimeter;whiteSpace=wrap;html=1;fixedSize=1;" vertex="1" parent="7L2wKVbQM28l9aC9Pr6a-30">
          <mxGeometry x="5" y="27.5" width="130" height="55" as="geometry" />
        </mxCell>
        <mxCell id="7L2wKVbQM28l9aC9Pr6a-32" value="" style="edgeStyle=orthogonalEdgeStyle;rounded=0;orthogonalLoop=1;jettySize=auto;html=1;" edge="1" parent="7L2wKVbQM28l9aC9Pr6a-2" source="7L2wKVbQM28l9aC9Pr6a-33" target="7L2wKVbQM28l9aC9Pr6a-3">
          <mxGeometry relative="1" as="geometry" />
        </mxCell>
        <mxCell id="7L2wKVbQM28l9aC9Pr6a-33" value="Program begins" style="rounded=1;whiteSpace=wrap;html=1;" vertex="1" parent="7L2wKVbQM28l9aC9Pr6a-2">
          <mxGeometry x="40" y="280" width="120" height="40" as="geometry" />
        </mxCell>
        <mxCell id="7L2wKVbQM28l9aC9Pr6a-34" style="edgeStyle=orthogonalEdgeStyle;rounded=0;orthogonalLoop=1;jettySize=auto;html=1;entryX=1;entryY=0.5;entryDx=0;entryDy=0;" edge="1" parent="7L2wKVbQM28l9aC9Pr6a-2" source="7L2wKVbQM28l9aC9Pr6a-36" target="7L2wKVbQM28l9aC9Pr6a-14">
          <mxGeometry relative="1" as="geometry" />
        </mxCell>
        <mxCell id="7L2wKVbQM28l9aC9Pr6a-35" style="edgeStyle=orthogonalEdgeStyle;rounded=0;orthogonalLoop=1;jettySize=auto;html=1;entryX=0;entryY=0.5;entryDx=0;entryDy=0;exitX=0.5;exitY=0;exitDx=0;exitDy=0;" edge="1" parent="7L2wKVbQM28l9aC9Pr6a-2" source="7L2wKVbQM28l9aC9Pr6a-36" target="7L2wKVbQM28l9aC9Pr6a-6">
          <mxGeometry relative="1" as="geometry">
            <Array as="points">
              <mxPoint x="250" y="370" />
            </Array>
          </mxGeometry>
        </mxCell>
        <mxCell id="7L2wKVbQM28l9aC9Pr6a-36" value="replay&lt;br&gt;or&lt;br&gt;exit" style="rhombus;whiteSpace=wrap;html=1;" vertex="1" parent="7L2wKVbQM28l9aC9Pr6a-2">
          <mxGeometry x="210" y="410" width="80" height="80" as="geometry" />
        </mxCell>
        <mxCell id="7L2wKVbQM28l9aC9Pr6a-37" value="" style="edgeStyle=orthogonalEdgeStyle;rounded=0;orthogonalLoop=1;jettySize=auto;html=1;" edge="1" parent="7L2wKVbQM28l9aC9Pr6a-2" source="7L2wKVbQM28l9aC9Pr6a-5" target="7L2wKVbQM28l9aC9Pr6a-9">
          <mxGeometry relative="1" as="geometry" />
        </mxCell>
        <mxCell id="7L2wKVbQM28l9aC9Pr6a-38" value="" style="endArrow=classic;html=1;rounded=0;entryX=0;entryY=0.5;entryDx=0;entryDy=0;exitX=0.5;exitY=0;exitDx=0;exitDy=0;entryPerimeter=0;" edge="1" parent="7L2wKVbQM28l9aC9Pr6a-2" source="7L2wKVbQM28l9aC9Pr6a-19" target="7L2wKVbQM28l9aC9Pr6a-25">
          <mxGeometry width="50" height="50" relative="1" as="geometry">
            <mxPoint x="750" y="14" as="sourcePoint" />
            <mxPoint x="940.0000000000002" y="94" as="targetPoint" />
            <Array as="points">
              <mxPoint x="787" y="85" />
            </Array>
          </mxGeometry>
        </mxCell>
        <mxCell id="7L2wKVbQM28l9aC9Pr6a-39" value="" style="endArrow=classic;html=1;rounded=0;entryX=0;entryY=0.5;entryDx=0;entryDy=0;exitX=1;exitY=0.5;exitDx=0;exitDy=0;exitPerimeter=0;" edge="1" parent="7L2wKVbQM28l9aC9Pr6a-2" source="7L2wKVbQM28l9aC9Pr6a-9" target="7L2wKVbQM28l9aC9Pr6a-19">
          <mxGeometry width="50" height="50" relative="1" as="geometry">
            <mxPoint x="700" y="209" as="sourcePoint" />
            <mxPoint x="980" y="169" as="targetPoint" />
          </mxGeometry>
        </mxCell>
        <mxCell id="7L2wKVbQM28l9aC9Pr6a-40" value="CLASS PATENT DEFINITION" style="swimlane;" vertex="1" parent="1">
          <mxGeometry x="262" y="144" width="1260" height="540" as="geometry">
            <mxRectangle x="60" y="50" width="200" height="30" as="alternateBounds" />
          </mxGeometry>
        </mxCell>
        <mxCell id="7L2wKVbQM28l9aC9Pr6a-41" value="OUTPUT" style="swimlane;whiteSpace=wrap;html=1;" vertex="1" parent="7L2wKVbQM28l9aC9Pr6a-40">
          <mxGeometry x="990" y="50" width="250" height="470" as="geometry" />
        </mxCell>
        <mxCell id="7L2wKVbQM28l9aC9Pr6a-42" value="str1: invention A&lt;br&gt;str2: invention B" style="rounded=1;whiteSpace=wrap;html=1;" vertex="1" parent="7L2wKVbQM28l9aC9Pr6a-41">
          <mxGeometry x="30" y="227.5" width="200" height="60" as="geometry" />
        </mxCell>
        <mxCell id="7L2wKVbQM28l9aC9Pr6a-43" value="None" style="rounded=1;whiteSpace=wrap;html=1;" vertex="1" parent="7L2wKVbQM28l9aC9Pr6a-41">
          <mxGeometry x="30" y="55" width="200" height="65" as="geometry" />
        </mxCell>
        <mxCell id="7L2wKVbQM28l9aC9Pr6a-44" value="None" style="rounded=1;whiteSpace=wrap;html=1;" vertex="1" parent="7L2wKVbQM28l9aC9Pr6a-41">
          <mxGeometry x="30" y="142.5" width="200" height="60" as="geometry" />
        </mxCell>
        <mxCell id="7L2wKVbQM28l9aC9Pr6a-45" value="True / False&lt;br&gt;+ coins" style="rounded=1;whiteSpace=wrap;html=1;" vertex="1" parent="7L2wKVbQM28l9aC9Pr6a-41">
          <mxGeometry x="30" y="307.5" width="200" height="60" as="geometry" />
        </mxCell>
        <mxCell id="7L2wKVbQM28l9aC9Pr6a-46" value="displays data" style="rounded=1;whiteSpace=wrap;html=1;" vertex="1" parent="7L2wKVbQM28l9aC9Pr6a-41">
          <mxGeometry x="30" y="387.5" width="200" height="60" as="geometry" />
        </mxCell>
        <mxCell id="7L2wKVbQM28l9aC9Pr6a-47" value="class patent:&lt;br&gt;__init__&lt;br&gt;&lt;br&gt;data&lt;br&gt;&lt;br&gt;collector&lt;br&gt;&lt;br&gt;officer&lt;br&gt;&lt;br&gt;display" style="whiteSpace=wrap;html=1;aspect=fixed;" vertex="1" parent="7L2wKVbQM28l9aC9Pr6a-40">
          <mxGeometry x="10" y="161" width="160" height="160" as="geometry" />
        </mxCell>
        <mxCell id="7L2wKVbQM28l9aC9Pr6a-48" value="__init__&lt;br&gt;&lt;br&gt;Initiates the class patent with the required arguments." style="rounded=1;whiteSpace=wrap;html=1;arcSize=30;" vertex="1" parent="7L2wKVbQM28l9aC9Pr6a-40">
          <mxGeometry x="215" y="97.5" width="150" height="80" as="geometry" />
        </mxCell>
        <mxCell id="7L2wKVbQM28l9aC9Pr6a-49" value="data&lt;br&gt;&lt;br&gt;loads the data from the file and converts it into a dictionary." style="rounded=1;whiteSpace=wrap;html=1;arcSize=36;" vertex="1" parent="7L2wKVbQM28l9aC9Pr6a-40">
          <mxGeometry x="215" y="177.5" width="150" height="90" as="geometry" />
        </mxCell>
        <mxCell id="7L2wKVbQM28l9aC9Pr6a-50" value="collector&lt;br&gt;&lt;br&gt;picks the 2 inventions and display it on the screen for selection." style="rounded=1;whiteSpace=wrap;html=1;arcSize=30;" vertex="1" parent="7L2wKVbQM28l9aC9Pr6a-40">
          <mxGeometry x="215" y="267.5" width="150" height="80" as="geometry" />
        </mxCell>
        <mxCell id="7L2wKVbQM28l9aC9Pr6a-51" value="officer&lt;br&gt;&lt;br&gt;decides whether the user&#39;s choice is correct or wrong and awards marks for it." style="rounded=1;whiteSpace=wrap;html=1;arcSize=30;" vertex="1" parent="7L2wKVbQM28l9aC9Pr6a-40">
          <mxGeometry x="215" y="347.5" width="150" height="80" as="geometry" />
        </mxCell>
        <mxCell id="7L2wKVbQM28l9aC9Pr6a-52" value="" style="endArrow=classic;html=1;rounded=0;entryX=0;entryY=0.5;entryDx=0;entryDy=0;exitX=1;exitY=0.25;exitDx=0;exitDy=0;" edge="1" parent="7L2wKVbQM28l9aC9Pr6a-40" source="7L2wKVbQM28l9aC9Pr6a-47" target="7L2wKVbQM28l9aC9Pr6a-48">
          <mxGeometry width="50" height="50" relative="1" as="geometry">
            <mxPoint x="140" y="200" as="sourcePoint" />
            <mxPoint x="310" y="270" as="targetPoint" />
          </mxGeometry>
        </mxCell>
        <mxCell id="7L2wKVbQM28l9aC9Pr6a-53" value="" style="endArrow=classic;html=1;rounded=0;entryX=0;entryY=0.5;entryDx=0;entryDy=0;exitX=1;exitY=0.5;exitDx=0;exitDy=0;" edge="1" parent="7L2wKVbQM28l9aC9Pr6a-40" source="7L2wKVbQM28l9aC9Pr6a-47" target="7L2wKVbQM28l9aC9Pr6a-49">
          <mxGeometry width="50" height="50" relative="1" as="geometry">
            <mxPoint x="150" y="210" as="sourcePoint" />
            <mxPoint x="280" y="150" as="targetPoint" />
          </mxGeometry>
        </mxCell>
        <mxCell id="7L2wKVbQM28l9aC9Pr6a-54" value="" style="endArrow=classic;html=1;rounded=0;entryX=0;entryY=0.5;entryDx=0;entryDy=0;" edge="1" parent="7L2wKVbQM28l9aC9Pr6a-40" source="7L2wKVbQM28l9aC9Pr6a-47" target="7L2wKVbQM28l9aC9Pr6a-50">
          <mxGeometry width="50" height="50" relative="1" as="geometry">
            <mxPoint x="160" y="220" as="sourcePoint" />
            <mxPoint x="290" y="160" as="targetPoint" />
            <Array as="points" />
          </mxGeometry>
        </mxCell>
        <mxCell id="7L2wKVbQM28l9aC9Pr6a-55" value="" style="endArrow=classic;html=1;rounded=0;entryX=0;entryY=0.5;entryDx=0;entryDy=0;exitX=1;exitY=1;exitDx=0;exitDy=0;" edge="1" parent="7L2wKVbQM28l9aC9Pr6a-40" source="7L2wKVbQM28l9aC9Pr6a-47" target="7L2wKVbQM28l9aC9Pr6a-51">
          <mxGeometry width="50" height="50" relative="1" as="geometry">
            <mxPoint x="129" y="290" as="sourcePoint" />
            <mxPoint x="259" y="230" as="targetPoint" />
          </mxGeometry>
        </mxCell>
        <mxCell id="7L2wKVbQM28l9aC9Pr6a-56" value="" style="edgeStyle=orthogonalEdgeStyle;rounded=0;orthogonalLoop=1;jettySize=auto;html=1;" edge="1" parent="7L2wKVbQM28l9aC9Pr6a-40" source="7L2wKVbQM28l9aC9Pr6a-57" target="7L2wKVbQM28l9aC9Pr6a-76">
          <mxGeometry relative="1" as="geometry" />
        </mxCell>
        <mxCell id="7L2wKVbQM28l9aC9Pr6a-57" value="user name&lt;br&gt;level&lt;br&gt;score = 0&lt;br&gt;action = load data" style="rounded=1;whiteSpace=wrap;html=1;" vertex="1" parent="7L2wKVbQM28l9aC9Pr6a-40">
          <mxGeometry x="450" y="105" width="200" height="65" as="geometry" />
        </mxCell>
        <mxCell id="7L2wKVbQM28l9aC9Pr6a-58" value="__str__&lt;br&gt;&lt;br&gt;controls the way the data will be represented to the user." style="rounded=1;whiteSpace=wrap;html=1;arcSize=30;" vertex="1" parent="7L2wKVbQM28l9aC9Pr6a-40">
          <mxGeometry x="215" y="427.5" width="150" height="80" as="geometry" />
        </mxCell>
        <mxCell id="7L2wKVbQM28l9aC9Pr6a-59" value="" style="edgeStyle=orthogonalEdgeStyle;rounded=0;orthogonalLoop=1;jettySize=auto;html=1;" edge="1" parent="7L2wKVbQM28l9aC9Pr6a-40" source="7L2wKVbQM28l9aC9Pr6a-48" target="7L2wKVbQM28l9aC9Pr6a-57">
          <mxGeometry relative="1" as="geometry" />
        </mxCell>
        <mxCell id="7L2wKVbQM28l9aC9Pr6a-60" value="" style="edgeStyle=orthogonalEdgeStyle;rounded=0;orthogonalLoop=1;jettySize=auto;html=1;" edge="1" parent="7L2wKVbQM28l9aC9Pr6a-40" source="7L2wKVbQM28l9aC9Pr6a-61" target="7L2wKVbQM28l9aC9Pr6a-77">
          <mxGeometry relative="1" as="geometry" />
        </mxCell>
        <mxCell id="7L2wKVbQM28l9aC9Pr6a-61" value="action&lt;br&gt;load data / load score / store score" style="rounded=1;whiteSpace=wrap;html=1;" vertex="1" parent="7L2wKVbQM28l9aC9Pr6a-40">
          <mxGeometry x="450" y="192.5" width="200" height="60" as="geometry" />
        </mxCell>
        <mxCell id="7L2wKVbQM28l9aC9Pr6a-62" value="" style="edgeStyle=orthogonalEdgeStyle;rounded=0;orthogonalLoop=1;jettySize=auto;html=1;" edge="1" parent="7L2wKVbQM28l9aC9Pr6a-40" source="7L2wKVbQM28l9aC9Pr6a-63" target="7L2wKVbQM28l9aC9Pr6a-75">
          <mxGeometry relative="1" as="geometry" />
        </mxCell>
        <mxCell id="7L2wKVbQM28l9aC9Pr6a-63" value="invention B &amp;amp; &lt;br&gt;level&lt;br&gt;(novice / intermediate / master)" style="rounded=1;whiteSpace=wrap;html=1;" vertex="1" parent="7L2wKVbQM28l9aC9Pr6a-40">
          <mxGeometry x="450" y="277.5" width="200" height="60" as="geometry" />
        </mxCell>
        <mxCell id="7L2wKVbQM28l9aC9Pr6a-64" value="" style="edgeStyle=orthogonalEdgeStyle;rounded=0;orthogonalLoop=1;jettySize=auto;html=1;" edge="1" parent="7L2wKVbQM28l9aC9Pr6a-40" source="7L2wKVbQM28l9aC9Pr6a-65" target="7L2wKVbQM28l9aC9Pr6a-78">
          <mxGeometry relative="1" as="geometry" />
        </mxCell>
        <mxCell id="7L2wKVbQM28l9aC9Pr6a-65" value="int date: str1&lt;br&gt;int date: str2&lt;br&gt;user&#39;s choice" style="rounded=1;whiteSpace=wrap;html=1;" vertex="1" parent="7L2wKVbQM28l9aC9Pr6a-40">
          <mxGeometry x="450" y="357.5" width="200" height="60" as="geometry" />
        </mxCell>
        <mxCell id="7L2wKVbQM28l9aC9Pr6a-66" value="" style="edgeStyle=orthogonalEdgeStyle;rounded=0;orthogonalLoop=1;jettySize=auto;html=1;" edge="1" parent="7L2wKVbQM28l9aC9Pr6a-40" source="7L2wKVbQM28l9aC9Pr6a-67" target="7L2wKVbQM28l9aC9Pr6a-79">
          <mxGeometry relative="1" as="geometry" />
        </mxCell>
        <mxCell id="7L2wKVbQM28l9aC9Pr6a-67" value="score &amp;amp; Two inventions&lt;br&gt;(str1: invention A / str2: invention B)" style="rounded=1;whiteSpace=wrap;html=1;" vertex="1" parent="7L2wKVbQM28l9aC9Pr6a-40">
          <mxGeometry x="450" y="437.5" width="200" height="60" as="geometry" />
        </mxCell>
        <mxCell id="7L2wKVbQM28l9aC9Pr6a-68" value="INPUTS" style="swimlane;whiteSpace=wrap;html=1;" vertex="1" parent="7L2wKVbQM28l9aC9Pr6a-40">
          <mxGeometry x="420" y="47.5" width="250" height="472.5" as="geometry" />
        </mxCell>
        <mxCell id="7L2wKVbQM28l9aC9Pr6a-69" value="" style="edgeStyle=orthogonalEdgeStyle;rounded=0;orthogonalLoop=1;jettySize=auto;html=1;" edge="1" parent="7L2wKVbQM28l9aC9Pr6a-40" source="7L2wKVbQM28l9aC9Pr6a-49" target="7L2wKVbQM28l9aC9Pr6a-61">
          <mxGeometry relative="1" as="geometry" />
        </mxCell>
        <mxCell id="7L2wKVbQM28l9aC9Pr6a-70" value="" style="edgeStyle=orthogonalEdgeStyle;rounded=0;orthogonalLoop=1;jettySize=auto;html=1;" edge="1" parent="7L2wKVbQM28l9aC9Pr6a-40" source="7L2wKVbQM28l9aC9Pr6a-50" target="7L2wKVbQM28l9aC9Pr6a-63">
          <mxGeometry relative="1" as="geometry" />
        </mxCell>
        <mxCell id="7L2wKVbQM28l9aC9Pr6a-71" value="" style="edgeStyle=orthogonalEdgeStyle;rounded=0;orthogonalLoop=1;jettySize=auto;html=1;" edge="1" parent="7L2wKVbQM28l9aC9Pr6a-40" source="7L2wKVbQM28l9aC9Pr6a-51" target="7L2wKVbQM28l9aC9Pr6a-65">
          <mxGeometry relative="1" as="geometry" />
        </mxCell>
        <mxCell id="7L2wKVbQM28l9aC9Pr6a-72" value="" style="edgeStyle=orthogonalEdgeStyle;rounded=0;orthogonalLoop=1;jettySize=auto;html=1;" edge="1" parent="7L2wKVbQM28l9aC9Pr6a-40" source="7L2wKVbQM28l9aC9Pr6a-58" target="7L2wKVbQM28l9aC9Pr6a-67">
          <mxGeometry relative="1" as="geometry" />
        </mxCell>
        <mxCell id="7L2wKVbQM28l9aC9Pr6a-73" value="METHOD DESCRIPTION" style="swimlane;whiteSpace=wrap;html=1;" vertex="1" parent="7L2wKVbQM28l9aC9Pr6a-40">
          <mxGeometry x="190" y="47.5" width="200" height="470" as="geometry" />
        </mxCell>
        <mxCell id="7L2wKVbQM28l9aC9Pr6a-74" value="VARIABLES" style="swimlane;whiteSpace=wrap;html=1;" vertex="1" parent="7L2wKVbQM28l9aC9Pr6a-40">
          <mxGeometry x="710" y="47.5" width="250" height="472.5" as="geometry">
            <mxRectangle x="710" y="47.5" width="110" height="30" as="alternateBounds" />
          </mxGeometry>
        </mxCell>
        <mxCell id="7L2wKVbQM28l9aC9Pr6a-75" value="Not specified" style="rounded=1;whiteSpace=wrap;html=1;" vertex="1" parent="7L2wKVbQM28l9aC9Pr6a-74">
          <mxGeometry x="25" y="230" width="200" height="60" as="geometry" />
        </mxCell>
        <mxCell id="7L2wKVbQM28l9aC9Pr6a-76" value="self.name: str&lt;br&gt;self.level: int&lt;br&gt;self.score: int&lt;br&gt;self.action: str" style="rounded=1;whiteSpace=wrap;html=1;" vertex="1" parent="7L2wKVbQM28l9aC9Pr6a-74">
          <mxGeometry x="20" y="57.5" width="200" height="65" as="geometry" />
        </mxCell>
        <mxCell id="7L2wKVbQM28l9aC9Pr6a-77" value="self.dict" style="rounded=1;whiteSpace=wrap;html=1;" vertex="1" parent="7L2wKVbQM28l9aC9Pr6a-74">
          <mxGeometry x="25" y="145" width="200" height="60" as="geometry" />
        </mxCell>
        <mxCell id="7L2wKVbQM28l9aC9Pr6a-78" value="Not specified" style="rounded=1;whiteSpace=wrap;html=1;" vertex="1" parent="7L2wKVbQM28l9aC9Pr6a-74">
          <mxGeometry x="25" y="310" width="200" height="60" as="geometry" />
        </mxCell>
        <mxCell id="7L2wKVbQM28l9aC9Pr6a-79" value="Not specified" style="rounded=1;whiteSpace=wrap;html=1;" vertex="1" parent="7L2wKVbQM28l9aC9Pr6a-74">
          <mxGeometry x="20" y="390" width="200" height="60" as="geometry" />
        </mxCell>
        <mxCell id="7L2wKVbQM28l9aC9Pr6a-80" value="" style="edgeStyle=orthogonalEdgeStyle;rounded=0;orthogonalLoop=1;jettySize=auto;html=1;" edge="1" parent="7L2wKVbQM28l9aC9Pr6a-40" source="7L2wKVbQM28l9aC9Pr6a-79" target="7L2wKVbQM28l9aC9Pr6a-46">
          <mxGeometry relative="1" as="geometry" />
        </mxCell>
        <mxCell id="7L2wKVbQM28l9aC9Pr6a-81" value="" style="edgeStyle=orthogonalEdgeStyle;rounded=0;orthogonalLoop=1;jettySize=auto;html=1;" edge="1" parent="7L2wKVbQM28l9aC9Pr6a-40" source="7L2wKVbQM28l9aC9Pr6a-78" target="7L2wKVbQM28l9aC9Pr6a-45">
          <mxGeometry relative="1" as="geometry" />
        </mxCell>
        <mxCell id="7L2wKVbQM28l9aC9Pr6a-82" value="" style="edgeStyle=orthogonalEdgeStyle;rounded=0;orthogonalLoop=1;jettySize=auto;html=1;" edge="1" parent="7L2wKVbQM28l9aC9Pr6a-40" source="7L2wKVbQM28l9aC9Pr6a-75" target="7L2wKVbQM28l9aC9Pr6a-42">
          <mxGeometry relative="1" as="geometry" />
        </mxCell>
        <mxCell id="7L2wKVbQM28l9aC9Pr6a-83" value="" style="edgeStyle=orthogonalEdgeStyle;rounded=0;orthogonalLoop=1;jettySize=auto;html=1;" edge="1" parent="7L2wKVbQM28l9aC9Pr6a-40" source="7L2wKVbQM28l9aC9Pr6a-77" target="7L2wKVbQM28l9aC9Pr6a-44">
          <mxGeometry relative="1" as="geometry" />
        </mxCell>
        <mxCell id="7L2wKVbQM28l9aC9Pr6a-84" value="" style="edgeStyle=orthogonalEdgeStyle;rounded=0;orthogonalLoop=1;jettySize=auto;html=1;" edge="1" parent="7L2wKVbQM28l9aC9Pr6a-40" source="7L2wKVbQM28l9aC9Pr6a-76" target="7L2wKVbQM28l9aC9Pr6a-43">
          <mxGeometry relative="1" as="geometry" />
        </mxCell>
        <mxCell id="7L2wKVbQM28l9aC9Pr6a-119" value="DATA FLOW CAHT" style="swimlane;whiteSpace=wrap;html=1;" vertex="1" parent="1">
          <mxGeometry x="276" y="768" width="1284" height="500" as="geometry" />
        </mxCell>
        <mxCell id="7L2wKVbQM28l9aC9Pr6a-85" value="collector method" style="swimlane;" vertex="1" parent="7L2wKVbQM28l9aC9Pr6a-119">
          <mxGeometry x="395" y="150" width="160" height="290" as="geometry" />
        </mxCell>
        <mxCell id="7L2wKVbQM28l9aC9Pr6a-86" value="int date: invention A" style="shape=parallelogram;perimeter=parallelogramPerimeter;whiteSpace=wrap;html=1;fixedSize=1;" vertex="1" parent="7L2wKVbQM28l9aC9Pr6a-85">
          <mxGeometry x="10" y="80" width="130" height="30" as="geometry" />
        </mxCell>
        <mxCell id="7L2wKVbQM28l9aC9Pr6a-87" style="edgeStyle=orthogonalEdgeStyle;rounded=0;orthogonalLoop=1;jettySize=auto;html=1;" edge="1" parent="7L2wKVbQM28l9aC9Pr6a-85" source="7L2wKVbQM28l9aC9Pr6a-88" target="7L2wKVbQM28l9aC9Pr6a-85">
          <mxGeometry relative="1" as="geometry">
            <Array as="points">
              <mxPoint x="80" y="115" />
              <mxPoint x="-20" y="115" />
              <mxPoint x="-20" y="310" />
              <mxPoint x="80" y="310" />
            </Array>
          </mxGeometry>
        </mxCell>
        <mxCell id="7L2wKVbQM28l9aC9Pr6a-88" value="int date: invention B" style="shape=parallelogram;perimeter=parallelogramPerimeter;whiteSpace=wrap;html=1;fixedSize=1;" vertex="1" parent="7L2wKVbQM28l9aC9Pr6a-85">
          <mxGeometry x="10" y="120" width="125" height="35" as="geometry" />
        </mxCell>
        <mxCell id="7L2wKVbQM28l9aC9Pr6a-89" value="__str__ method" style="swimlane;" vertex="1" parent="7L2wKVbQM28l9aC9Pr6a-119">
          <mxGeometry x="605" y="150" width="170" height="110" as="geometry" />
        </mxCell>
        <mxCell id="7L2wKVbQM28l9aC9Pr6a-90" value="officer method" style="swimlane;" vertex="1" parent="7L2wKVbQM28l9aC9Pr6a-119">
          <mxGeometry x="832" y="80" width="210" height="300" as="geometry" />
        </mxCell>
        <mxCell id="7L2wKVbQM28l9aC9Pr6a-91" value="user input" style="shape=manualInput;whiteSpace=wrap;html=1;" vertex="1" parent="7L2wKVbQM28l9aC9Pr6a-90">
          <mxGeometry x="53" y="170" width="80" height="80" as="geometry" />
        </mxCell>
        <mxCell id="7L2wKVbQM28l9aC9Pr6a-92" value="self.score" style="shape=parallelogram;perimeter=parallelogramPerimeter;whiteSpace=wrap;html=1;fixedSize=1;" vertex="1" parent="7L2wKVbQM28l9aC9Pr6a-90">
          <mxGeometry x="53" y="70" width="97" height="30" as="geometry" />
        </mxCell>
        <mxCell id="7L2wKVbQM28l9aC9Pr6a-93" value="self.action" style="shape=parallelogram;perimeter=parallelogramPerimeter;whiteSpace=wrap;html=1;fixedSize=1;" vertex="1" parent="7L2wKVbQM28l9aC9Pr6a-90">
          <mxGeometry x="53" y="100" width="97" height="30" as="geometry" />
        </mxCell>
        <mxCell id="7L2wKVbQM28l9aC9Pr6a-94" value="__init__ method" style="swimlane;" vertex="1" parent="7L2wKVbQM28l9aC9Pr6a-119">
          <mxGeometry x="15" y="150" width="140" height="130" as="geometry" />
        </mxCell>
        <mxCell id="7L2wKVbQM28l9aC9Pr6a-95" value="self.name" style="shape=parallelogram;perimeter=parallelogramPerimeter;whiteSpace=wrap;html=1;fixedSize=1;" vertex="1" parent="7L2wKVbQM28l9aC9Pr6a-94">
          <mxGeometry x="15" y="40" width="110" height="20" as="geometry" />
        </mxCell>
        <mxCell id="7L2wKVbQM28l9aC9Pr6a-96" value="self.score" style="shape=parallelogram;perimeter=parallelogramPerimeter;whiteSpace=wrap;html=1;fixedSize=1;" vertex="1" parent="7L2wKVbQM28l9aC9Pr6a-94">
          <mxGeometry x="15" y="100" width="110" height="20" as="geometry" />
        </mxCell>
        <mxCell id="7L2wKVbQM28l9aC9Pr6a-97" value="self.level" style="shape=parallelogram;perimeter=parallelogramPerimeter;whiteSpace=wrap;html=1;fixedSize=1;" vertex="1" parent="7L2wKVbQM28l9aC9Pr6a-94">
          <mxGeometry x="15" y="80" width="110" height="20" as="geometry" />
        </mxCell>
        <mxCell id="7L2wKVbQM28l9aC9Pr6a-98" value="self.action" style="shape=parallelogram;perimeter=parallelogramPerimeter;whiteSpace=wrap;html=1;fixedSize=1;" vertex="1" parent="7L2wKVbQM28l9aC9Pr6a-94">
          <mxGeometry x="15" y="60" width="110" height="20" as="geometry" />
        </mxCell>
        <mxCell id="7L2wKVbQM28l9aC9Pr6a-99" value="data method" style="swimlane;" vertex="1" parent="7L2wKVbQM28l9aC9Pr6a-119">
          <mxGeometry x="205" y="150" width="140" height="130" as="geometry" />
        </mxCell>
        <mxCell id="7L2wKVbQM28l9aC9Pr6a-100" value="self.dict" style="shape=parallelogram;perimeter=parallelogramPerimeter;whiteSpace=wrap;html=1;fixedSize=1;" vertex="1" parent="7L2wKVbQM28l9aC9Pr6a-99">
          <mxGeometry x="15" y="60" width="110" height="20" as="geometry" />
        </mxCell>
        <mxCell id="7L2wKVbQM28l9aC9Pr6a-101" value="__str__ method" style="swimlane;" vertex="1" parent="7L2wKVbQM28l9aC9Pr6a-119">
          <mxGeometry x="635" y="340" width="140" height="100" as="geometry" />
        </mxCell>
        <mxCell id="7L2wKVbQM28l9aC9Pr6a-102" value="__str__ method" style="swimlane;" vertex="1" parent="7L2wKVbQM28l9aC9Pr6a-119">
          <mxGeometry x="1106" y="60" width="140" height="90" as="geometry" />
        </mxCell>
        <mxCell id="7L2wKVbQM28l9aC9Pr6a-103" value="data method" style="swimlane;" vertex="1" parent="7L2wKVbQM28l9aC9Pr6a-119">
          <mxGeometry x="1115" y="220" width="140" height="130" as="geometry" />
        </mxCell>
        <mxCell id="7L2wKVbQM28l9aC9Pr6a-104" style="edgeStyle=orthogonalEdgeStyle;rounded=0;orthogonalLoop=1;jettySize=auto;html=1;entryX=0.5;entryY=0;entryDx=0;entryDy=0;" edge="1" parent="7L2wKVbQM28l9aC9Pr6a-119" source="7L2wKVbQM28l9aC9Pr6a-98" target="7L2wKVbQM28l9aC9Pr6a-99">
          <mxGeometry relative="1" as="geometry">
            <Array as="points">
              <mxPoint x="195" y="220" />
              <mxPoint x="195" y="140" />
              <mxPoint x="275" y="140" />
            </Array>
          </mxGeometry>
        </mxCell>
        <mxCell id="7L2wKVbQM28l9aC9Pr6a-105" style="edgeStyle=orthogonalEdgeStyle;rounded=0;orthogonalLoop=1;jettySize=auto;html=1;entryX=0.5;entryY=0;entryDx=0;entryDy=0;" edge="1" parent="7L2wKVbQM28l9aC9Pr6a-119" source="7L2wKVbQM28l9aC9Pr6a-100" target="7L2wKVbQM28l9aC9Pr6a-85">
          <mxGeometry relative="1" as="geometry">
            <Array as="points">
              <mxPoint x="385" y="220" />
              <mxPoint x="385" y="140" />
              <mxPoint x="475" y="140" />
            </Array>
          </mxGeometry>
        </mxCell>
        <mxCell id="7L2wKVbQM28l9aC9Pr6a-106" style="edgeStyle=orthogonalEdgeStyle;rounded=0;orthogonalLoop=1;jettySize=auto;html=1;entryX=0.5;entryY=0;entryDx=0;entryDy=0;" edge="1" parent="7L2wKVbQM28l9aC9Pr6a-119" source="7L2wKVbQM28l9aC9Pr6a-86" target="7L2wKVbQM28l9aC9Pr6a-89">
          <mxGeometry relative="1" as="geometry">
            <mxPoint x="585" y="90" as="targetPoint" />
            <Array as="points">
              <mxPoint x="575" y="250" />
              <mxPoint x="575" y="130" />
              <mxPoint x="690" y="130" />
            </Array>
          </mxGeometry>
        </mxCell>
        <mxCell id="7L2wKVbQM28l9aC9Pr6a-107" style="edgeStyle=orthogonalEdgeStyle;rounded=0;orthogonalLoop=1;jettySize=auto;html=1;" edge="1" parent="7L2wKVbQM28l9aC9Pr6a-119" source="7L2wKVbQM28l9aC9Pr6a-88">
          <mxGeometry relative="1" as="geometry">
            <mxPoint x="645" y="150" as="targetPoint" />
            <Array as="points">
              <mxPoint x="595" y="295" />
              <mxPoint x="595" y="140" />
              <mxPoint x="645" y="140" />
            </Array>
          </mxGeometry>
        </mxCell>
        <mxCell id="7L2wKVbQM28l9aC9Pr6a-108" style="edgeStyle=orthogonalEdgeStyle;rounded=0;orthogonalLoop=1;jettySize=auto;html=1;entryX=0.75;entryY=0;entryDx=0;entryDy=0;" edge="1" parent="7L2wKVbQM28l9aC9Pr6a-119" source="7L2wKVbQM28l9aC9Pr6a-96" target="7L2wKVbQM28l9aC9Pr6a-89">
          <mxGeometry relative="1" as="geometry">
            <Array as="points">
              <mxPoint x="175" y="260" />
              <mxPoint x="175" y="120" />
              <mxPoint x="733" y="120" />
            </Array>
          </mxGeometry>
        </mxCell>
        <mxCell id="7L2wKVbQM28l9aC9Pr6a-109" style="edgeStyle=orthogonalEdgeStyle;rounded=0;orthogonalLoop=1;jettySize=auto;html=1;entryX=0.5;entryY=0;entryDx=0;entryDy=0;" edge="1" parent="7L2wKVbQM28l9aC9Pr6a-119" source="7L2wKVbQM28l9aC9Pr6a-86" target="7L2wKVbQM28l9aC9Pr6a-90">
          <mxGeometry relative="1" as="geometry">
            <Array as="points">
              <mxPoint x="575" y="250" />
              <mxPoint x="575" y="60" />
              <mxPoint x="937" y="60" />
            </Array>
          </mxGeometry>
        </mxCell>
        <mxCell id="7L2wKVbQM28l9aC9Pr6a-110" style="edgeStyle=orthogonalEdgeStyle;rounded=0;orthogonalLoop=1;jettySize=auto;html=1;entryX=0.25;entryY=0;entryDx=0;entryDy=0;" edge="1" parent="7L2wKVbQM28l9aC9Pr6a-119" source="7L2wKVbQM28l9aC9Pr6a-88" target="7L2wKVbQM28l9aC9Pr6a-90">
          <mxGeometry relative="1" as="geometry">
            <mxPoint x="955" y="20" as="targetPoint" />
            <Array as="points">
              <mxPoint x="595" y="295" />
              <mxPoint x="595" y="50" />
              <mxPoint x="885" y="50" />
            </Array>
          </mxGeometry>
        </mxCell>
        <mxCell id="7L2wKVbQM28l9aC9Pr6a-111" style="edgeStyle=orthogonalEdgeStyle;rounded=0;orthogonalLoop=1;jettySize=auto;html=1;" edge="1" parent="7L2wKVbQM28l9aC9Pr6a-119" source="7L2wKVbQM28l9aC9Pr6a-92" target="7L2wKVbQM28l9aC9Pr6a-102">
          <mxGeometry relative="1" as="geometry">
            <Array as="points">
              <mxPoint x="1065" y="145" />
              <mxPoint x="1065" y="50" />
              <mxPoint x="1176" y="50" />
            </Array>
          </mxGeometry>
        </mxCell>
        <mxCell id="7L2wKVbQM28l9aC9Pr6a-112" style="edgeStyle=orthogonalEdgeStyle;rounded=0;orthogonalLoop=1;jettySize=auto;html=1;entryX=0.5;entryY=0;entryDx=0;entryDy=0;" edge="1" parent="7L2wKVbQM28l9aC9Pr6a-119" source="7L2wKVbQM28l9aC9Pr6a-93" target="7L2wKVbQM28l9aC9Pr6a-103">
          <mxGeometry relative="1" as="geometry">
            <Array as="points">
              <mxPoint x="1185" y="195" />
            </Array>
          </mxGeometry>
        </mxCell>
        <mxCell id="7L2wKVbQM28l9aC9Pr6a-113" style="edgeStyle=orthogonalEdgeStyle;rounded=0;orthogonalLoop=1;jettySize=auto;html=1;entryX=0.25;entryY=0;entryDx=0;entryDy=0;" edge="1" parent="7L2wKVbQM28l9aC9Pr6a-119" source="7L2wKVbQM28l9aC9Pr6a-92" target="7L2wKVbQM28l9aC9Pr6a-103">
          <mxGeometry relative="1" as="geometry">
            <Array as="points">
              <mxPoint x="1150" y="160" />
            </Array>
          </mxGeometry>
        </mxCell>
        <mxCell id="7L2wKVbQM28l9aC9Pr6a-114" style="edgeStyle=orthogonalEdgeStyle;rounded=0;orthogonalLoop=1;jettySize=auto;html=1;" edge="1" parent="7L2wKVbQM28l9aC9Pr6a-119" source="7L2wKVbQM28l9aC9Pr6a-92" target="7L2wKVbQM28l9aC9Pr6a-101">
          <mxGeometry relative="1" as="geometry">
            <Array as="points">
              <mxPoint x="795" y="165" />
              <mxPoint x="795" y="320" />
              <mxPoint x="705" y="320" />
            </Array>
          </mxGeometry>
        </mxCell>
        <mxCell id="7L2wKVbQM28l9aC9Pr6a-115" style="edgeStyle=orthogonalEdgeStyle;rounded=0;orthogonalLoop=1;jettySize=auto;html=1;entryX=0.75;entryY=0;entryDx=0;entryDy=0;" edge="1" parent="7L2wKVbQM28l9aC9Pr6a-119" source="7L2wKVbQM28l9aC9Pr6a-95" target="7L2wKVbQM28l9aC9Pr6a-102">
          <mxGeometry relative="1" as="geometry">
            <Array as="points">
              <mxPoint x="165" y="200" />
              <mxPoint x="165" y="40" />
              <mxPoint x="1211" y="40" />
            </Array>
          </mxGeometry>
        </mxCell>
        <mxCell id="7L2wKVbQM28l9aC9Pr6a-116" style="edgeStyle=orthogonalEdgeStyle;rounded=0;orthogonalLoop=1;jettySize=auto;html=1;entryX=0.75;entryY=0;entryDx=0;entryDy=0;" edge="1" parent="7L2wKVbQM28l9aC9Pr6a-119" source="7L2wKVbQM28l9aC9Pr6a-97" target="7L2wKVbQM28l9aC9Pr6a-85">
          <mxGeometry relative="1" as="geometry">
            <Array as="points">
              <mxPoint x="185" y="240" />
              <mxPoint x="185" y="100" />
              <mxPoint x="515" y="100" />
            </Array>
          </mxGeometry>
        </mxCell>
        <mxCell id="7L2wKVbQM28l9aC9Pr6a-118" style="edgeStyle=orthogonalEdgeStyle;rounded=0;orthogonalLoop=1;jettySize=auto;html=1;entryX=1;entryY=0;entryDx=0;entryDy=0;" edge="1" parent="7L2wKVbQM28l9aC9Pr6a-119" source="7L2wKVbQM28l9aC9Pr6a-95" target="7L2wKVbQM28l9aC9Pr6a-89">
          <mxGeometry relative="1" as="geometry">
            <mxPoint x="775" y="140" as="targetPoint" />
            <Array as="points">
              <mxPoint x="165" y="200" />
              <mxPoint x="165" y="90" />
              <mxPoint x="776" y="90" />
              <mxPoint x="776" y="140" />
            </Array>
          </mxGeometry>
        </mxCell>
        <mxCell id="7L2wKVbQM28l9aC9Pr6a-121" style="edgeStyle=orthogonalEdgeStyle;rounded=0;orthogonalLoop=1;jettySize=auto;html=1;entryX=0;entryY=0;entryDx=0;entryDy=0;" edge="1" parent="7L2wKVbQM28l9aC9Pr6a-119" source="7L2wKVbQM28l9aC9Pr6a-100" target="7L2wKVbQM28l9aC9Pr6a-89">
          <mxGeometry relative="1" as="geometry">
            <Array as="points">
              <mxPoint x="375" y="220" />
              <mxPoint x="375" y="130" />
              <mxPoint x="605" y="130" />
            </Array>
          </mxGeometry>
        </mxCell>
        <mxCell id="7L2wKVbQM28l9aC9Pr6a-117" style="edgeStyle=orthogonalEdgeStyle;rounded=0;orthogonalLoop=1;jettySize=auto;html=1;entryX=0.25;entryY=0;entryDx=0;entryDy=0;" edge="1" parent="7L2wKVbQM28l9aC9Pr6a-119" source="7L2wKVbQM28l9aC9Pr6a-95" target="7L2wKVbQM28l9aC9Pr6a-101">
          <mxGeometry relative="1" as="geometry">
            <Array as="points">
              <mxPoint x="85" y="180" />
              <mxPoint x="5" y="180" />
              <mxPoint x="5" y="460" />
              <mxPoint x="578" y="460" />
              <mxPoint x="578" y="324" />
              <mxPoint x="670" y="324" />
            </Array>
          </mxGeometry>
        </mxCell>
        <mxCell id="7L2wKVbQM28l9aC9Pr6a-124" value="INVENSTION GAME ALGORITHM" style="shape=table;startSize=24;container=1;collapsible=0;childLayout=tableLayout;fontSize=20;" vertex="1" parent="1">
          <mxGeometry x="1008" y="2004" width="606" height="258" as="geometry" />
        </mxCell>
        <mxCell id="7L2wKVbQM28l9aC9Pr6a-125" value="" style="shape=tableRow;horizontal=0;startSize=0;swimlaneHead=0;swimlaneBody=0;strokeColor=inherit;top=0;left=0;bottom=0;right=0;collapsible=0;dropTarget=0;fillColor=none;points=[[0,0.5],[1,0.5]];portConstraint=eastwest;" vertex="1" parent="7L2wKVbQM28l9aC9Pr6a-124">
          <mxGeometry y="24" width="606" height="55" as="geometry" />
        </mxCell>
        <mxCell id="7L2wKVbQM28l9aC9Pr6a-126" value="DATE" style="shape=partialRectangle;html=1;whiteSpace=wrap;connectable=0;strokeColor=inherit;overflow=hidden;fillColor=none;top=0;left=0;bottom=0;right=0;pointerEvents=1;fontSize=16;" vertex="1" parent="7L2wKVbQM28l9aC9Pr6a-125">
          <mxGeometry width="258" height="55" as="geometry">
            <mxRectangle width="258" height="55" as="alternateBounds" />
          </mxGeometry>
        </mxCell>
        <mxCell id="7L2wKVbQM28l9aC9Pr6a-127" value="09 TH JUNE 2023" style="shape=partialRectangle;html=1;whiteSpace=wrap;connectable=0;strokeColor=inherit;overflow=hidden;fillColor=none;top=0;left=0;bottom=0;right=0;pointerEvents=1;fontSize=16;" vertex="1" parent="7L2wKVbQM28l9aC9Pr6a-125">
          <mxGeometry x="258" width="348" height="55" as="geometry">
            <mxRectangle width="348" height="55" as="alternateBounds" />
          </mxGeometry>
        </mxCell>
        <mxCell id="7L2wKVbQM28l9aC9Pr6a-128" value="" style="shape=tableRow;horizontal=0;startSize=0;swimlaneHead=0;swimlaneBody=0;strokeColor=inherit;top=0;left=0;bottom=0;right=0;collapsible=0;dropTarget=0;fillColor=none;points=[[0,0.5],[1,0.5]];portConstraint=eastwest;" vertex="1" parent="7L2wKVbQM28l9aC9Pr6a-124">
          <mxGeometry y="79" width="606" height="60" as="geometry" />
        </mxCell>
        <mxCell id="7L2wKVbQM28l9aC9Pr6a-129" value="DEVELOPER" style="shape=partialRectangle;html=1;whiteSpace=wrap;connectable=0;strokeColor=inherit;overflow=hidden;fillColor=none;top=0;left=0;bottom=0;right=0;pointerEvents=1;" vertex="1" parent="7L2wKVbQM28l9aC9Pr6a-128">
          <mxGeometry width="258" height="60" as="geometry">
            <mxRectangle width="258" height="60" as="alternateBounds" />
          </mxGeometry>
        </mxCell>
        <mxCell id="7L2wKVbQM28l9aC9Pr6a-130" value="KOBINA A. ADU" style="shape=partialRectangle;html=1;whiteSpace=wrap;connectable=0;strokeColor=inherit;overflow=hidden;fillColor=none;top=0;left=0;bottom=0;right=0;pointerEvents=1;fontSize=16;" vertex="1" parent="7L2wKVbQM28l9aC9Pr6a-128">
          <mxGeometry x="258" width="348" height="60" as="geometry">
            <mxRectangle width="348" height="60" as="alternateBounds" />
          </mxGeometry>
        </mxCell>
        <mxCell id="7L2wKVbQM28l9aC9Pr6a-131" value="" style="shape=tableRow;horizontal=0;startSize=0;swimlaneHead=0;swimlaneBody=0;strokeColor=inherit;top=0;left=0;bottom=0;right=0;collapsible=0;dropTarget=0;fillColor=none;points=[[0,0.5],[1,0.5]];portConstraint=eastwest;" vertex="1" parent="7L2wKVbQM28l9aC9Pr6a-124">
          <mxGeometry y="139" width="606" height="59" as="geometry" />
        </mxCell>
        <mxCell id="7L2wKVbQM28l9aC9Pr6a-132" value="COMPANY" style="shape=partialRectangle;html=1;whiteSpace=wrap;connectable=0;strokeColor=inherit;overflow=hidden;fillColor=none;top=0;left=0;bottom=0;right=0;pointerEvents=1;fontSize=16;" vertex="1" parent="7L2wKVbQM28l9aC9Pr6a-131">
          <mxGeometry width="258" height="59" as="geometry">
            <mxRectangle width="258" height="59" as="alternateBounds" />
          </mxGeometry>
        </mxCell>
        <mxCell id="7L2wKVbQM28l9aC9Pr6a-133" value="EXESOFTWARE INC" style="shape=partialRectangle;html=1;whiteSpace=wrap;connectable=0;strokeColor=inherit;overflow=hidden;fillColor=none;top=0;left=0;bottom=0;right=0;pointerEvents=1;fontSize=16;" vertex="1" parent="7L2wKVbQM28l9aC9Pr6a-131">
          <mxGeometry x="258" width="348" height="59" as="geometry">
            <mxRectangle width="348" height="59" as="alternateBounds" />
          </mxGeometry>
        </mxCell>
        <mxCell id="7L2wKVbQM28l9aC9Pr6a-134" value="" style="shape=tableRow;horizontal=0;startSize=0;swimlaneHead=0;swimlaneBody=0;strokeColor=inherit;top=0;left=0;bottom=0;right=0;collapsible=0;dropTarget=0;fillColor=none;points=[[0,0.5],[1,0.5]];portConstraint=eastwest;" vertex="1" parent="7L2wKVbQM28l9aC9Pr6a-124">
          <mxGeometry y="198" width="606" height="60" as="geometry" />
        </mxCell>
        <mxCell id="7L2wKVbQM28l9aC9Pr6a-135" value="SECTION" style="shape=partialRectangle;html=1;whiteSpace=wrap;connectable=0;strokeColor=inherit;overflow=hidden;fillColor=none;top=0;left=0;bottom=0;right=0;pointerEvents=1;fontSize=16;" vertex="1" parent="7L2wKVbQM28l9aC9Pr6a-134">
          <mxGeometry width="258" height="60" as="geometry">
            <mxRectangle width="258" height="60" as="alternateBounds" />
          </mxGeometry>
        </mxCell>
        <mxCell id="7L2wKVbQM28l9aC9Pr6a-136" value="CLASS DEFINITION ALGORITHM" style="shape=partialRectangle;html=1;whiteSpace=wrap;connectable=0;strokeColor=inherit;overflow=hidden;fillColor=none;top=0;left=0;bottom=0;right=0;pointerEvents=1;fontSize=16;" vertex="1" parent="7L2wKVbQM28l9aC9Pr6a-134">
          <mxGeometry x="258" width="348" height="60" as="geometry">
            <mxRectangle width="348" height="60" as="alternateBounds" />
          </mxGeometry>
        </mxCell>
      </root>
    </mxGraphModel>
  </diagram>
  <diagram id="ZVraCuFt_2_9xVeBi9nO" name="Page-2">
    <mxGraphModel dx="1956" dy="1164" grid="1" gridSize="12" guides="1" tooltips="1" connect="1" arrows="1" fold="1" page="1" pageScale="1" pageWidth="1654" pageHeight="2336" math="0" shadow="0">
      <root>
        <mxCell id="0" />
        <mxCell id="1" parent="0" />
      </root>
    </mxGraphModel>
  </diagram>
</mxfile>
